<?xml version="1.0" encoding="UTF-8"?>
<svg id="Layer_2" data-name="Layer 2" xmlns="http://www.w3.org/2000/svg" viewBox="0 0 48 48">
  <defs>
    <style>
      .cls-1 {
        fill: #fff;
      }
    </style>
  </defs>
  <g id="Layer_1-2" data-name="Layer 1">
    <g>
      <path class="cls-1" d="M24,48c-3.24,0-6.38-.63-9.34-1.89-2.86-1.21-5.42-2.94-7.63-5.14-2.2-2.2-3.93-4.77-5.14-7.63-1.25-2.96-1.89-6.1-1.89-9.34s.63-6.38,1.89-9.34c1.21-2.86,2.94-5.42,5.14-7.63,2.2-2.2,4.77-3.93,7.63-5.14,2.96-1.25,6.1-1.89,9.34-1.89s6.38.63,9.34,1.89c2.86,1.21,5.42,2.94,7.63,5.14,2.2,2.2,3.93,4.77,5.14,7.63,1.25,2.96,1.89,6.1,1.89,9.34s-.63,6.38-1.89,9.34c-1.21,2.86-2.94,5.42-5.14,7.63-2.2,2.2-4.77,3.93-7.63,5.14-2.96,1.25-6.1,1.89-9.34,1.89ZM24,2.43c-5.76,0-11.18,2.24-15.25,6.32-4.07,4.07-6.32,9.49-6.32,15.25s2.24,11.18,6.32,15.25c4.07,4.07,9.49,6.32,15.25,6.32s11.18-2.24,15.25-6.32c4.07-4.07,6.32-9.49,6.32-15.25s-2.24-11.18-6.32-15.25c-4.07-4.07-9.49-6.32-15.25-6.32Z"/>
      <path class="cls-1" d="M30.44,28.05c-.16,0-.33-.03-.49-.1l-6.44-2.83c-.44-.19-.73-.63-.73-1.11v-13.37c0-.67.54-1.22,1.22-1.22s1.22.54,1.22,1.22v12.58l5.71,2.51c.62.27.89.99.62,1.6-.2.46-.65.73-1.11.73Z"/>
      <path class="cls-1" d="M22.78,6.61c0,.67.54,1.22,1.22,1.22s1.22-.54,1.22-1.22v-1.11c0-.67-.54-1.22-1.22-1.22s-1.22.54-1.22,1.22v1.11Z"/>
      <path class="cls-1" d="M6.61,25.22c.67,0,1.22-.54,1.22-1.22,0-.67-.54-1.22-1.22-1.22h-1.11c-.67,0-1.22.54-1.22,1.22,0,.67.54,1.22,1.22,1.22h1.11Z"/>
      <path class="cls-1" d="M25.22,41.39c0-.67-.54-1.22-1.22-1.22s-1.22.54-1.22,1.22v1.11c0,.67.54,1.22,1.22,1.22.67,0,1.22-.54,1.22-1.22v-1.11Z"/>
      <path class="cls-1" d="M41.39,22.78c-.67,0-1.22.54-1.22,1.22,0,.67.54,1.22,1.22,1.22h1.11c.67,0,1.22-.54,1.22-1.22,0-.67-.54-1.22-1.22-1.22h-1.11Z"/>
    </g>
  </g>
</svg>