<?xml version="1.0" encoding="UTF-8"?>
<svg id="Layer_2" data-name="Layer 2" xmlns="http://www.w3.org/2000/svg" viewBox="0 0 45.15 52.6">
  <defs>
    <style>
      .cls-1 {
        letter-spacing: 0em;
      }

      .cls-2 {
        letter-spacing: .01em;
      }

      .cls-3 {
        stroke: #fff;
        stroke-miterlimit: 10;
        stroke-width: .15px;
      }

      .cls-3, .cls-4 {
        fill: #fff;
      }

      .cls-4 {
        font-family: MontserratRoman-Bold, 'MontserratRoman Bold';
        font-size: 13.35px;
        font-variation-settings: ';
        font-weight: 700;
      }
    </style>
  </defs>
  <g id="Layer_1-2" data-name="Layer 1">
    <g>
      <path class="cls-3" d="M.93,7.95c1.07,2.34,3.05,4.74,5.56,6.74,1.54,1.23,3.19,2.23,4.83,2.95.15.07.3.13.45.19l-2.12,5.32c-.46,1.17-.47,2.45,0,3.62l9.35,23.79c.3.77.89,1.38,1.65,1.71.76.33,1.6.35,2.37.04l20.1-7.9c1.59-.62,2.37-2.43,1.75-4.02l-9.35-23.79c-.46-1.17-1.34-2.11-2.47-2.65l-14.1-6.69c-.36-.17-.76-.26-1.16-.25-.87-.99-1.85-1.93-2.94-2.8C12.33,2.21,9.55.82,7.03.3,4.3-.26,2.16.25.97,1.73c-1.18,1.48-1.2,3.69-.04,6.22ZM33.96,17.21l9.35,23.79c.29.73-.07,1.57-.81,1.86l-20.1,7.9c-.36.14-.75.13-1.1-.02s-.62-.43-.76-.79l-9.35-23.79c-.3-.77-.3-1.62,0-2.39l5.77-14.5c.05-.13.13-.24.23-.34.96,1.24,1.67,2.5,2.06,3.66-.08.02-.15.05-.22.08-1.88.74-2.81,2.87-2.07,4.76.36.91,1.05,1.63,1.95,2.02.9.39,1.9.41,2.81.05,1.88-.74,2.81-2.87,2.07-4.76-.36-.91-1.05-1.63-1.95-2.02-.29-.12-.58-.21-.88-.26-.28-.99-.75-2.02-1.4-3.05l12.76,6.05c.75.36,1.33.98,1.63,1.75ZM19.06,16.14c-.16.21-.37.38-.6.53-.3-.97.19-2.02,1.13-2.43.03.64-.08,1.35-.53,1.9ZM21.26,14.28c.45.22.8.6.99,1.07.4,1.03-.1,2.19-1.13,2.6-.5.2-1.04.19-1.53-.03.3-.21.56-.46.78-.74.62-.78.92-1.76.89-2.9ZM2.28,2.77c.76-.95,2.37-1.26,4.41-.83,2.27.47,4.8,1.74,7.11,3.59.84.67,1.62,1.39,2.32,2.14-.3.27-.55.6-.7.99l-3.04,7.63c-1.63-.66-3.29-1.65-4.85-2.89-2.32-1.84-4.12-4.02-5.09-6.13-.87-1.9-.93-3.53-.17-4.49Z"/>
      <text class="cls-4" transform="translate(23.07 43.47) rotate(-21.59)"><tspan class="cls-2" x="0" y="0">R</tspan><tspan class="cls-1" x="7.32" y="0">p</tspan></text>
    </g>
  </g>
</svg>