<?xml version="1.0" encoding="UTF-8"?>
<svg id="Layer_2" data-name="Layer 2" xmlns="http://www.w3.org/2000/svg" viewBox="0 0 45 42.93">
  <defs>
    <style>
      .cls-1 {
        fill: #fff;
      }
    </style>
  </defs>
  <g id="Layer_1-2" data-name="Layer 1">
    <g id="_1089_Hand_like_vote_love" data-name="1089, Hand, like, vote, love">
      <path class="cls-1" d="M45,17.9c0-2.19-1.57-4.48-4.53-4.48h-14.14c1.11-2.28,1.39-5.57.92-8.13-.55-2.92-1.94-4.75-3.97-5.21-.74-.18-2.87-.09-4.07.46-.37.09-.74.46-.83,1.1-.09.46-.09,1.46-.09,2.1-.18,5.75-2.03,9.23-5.45,10.23h0c0-.64-.55-1.19-1.2-1.19H1.2c-.65,0-1.2.55-1.2,1.19v27.5c0,.64.55,1.19,1.2,1.19h10.44c.65,0,1.2-.55,1.2-1.19v-.18l2.13,1.46c.18.09.46.18.65.18h16.54c3.88,0,5.54-4.11,3.97-6.85,2.4-.37,3.79-2.38,3.79-4.38,0-.91-.18-1.92-.74-2.74,2.68-1,3.6-4.29,2.22-6.67,2.4-.37,3.6-2.38,3.6-4.38ZM19.77,2.73h-.09.09ZM10.44,40.28H2.31V15.07h8.13v25.21ZM40.38,20.18h-2.77c-.65,0-1.11.46-1.11,1.1s.46,1.1,1.11,1.19c1.76.09,2.22,1.55,2.22,2.38,0,1-.65,2.19-2.22,2.19h-2.03c-.65,0-1.11.46-1.11,1.1s.46,1.1,1.11,1.19c1.76.09,2.22,1.55,2.22,2.38,0,1-.65,2.19-2.22,2.19h-3.14c-.65,0-1.11.55-1.11,1.1s.46,1.1,1.11,1.19c1.57,0,2.12,1.28,2.12,2.28,0,.82-.46,2.28-2.22,2.28H15.89l-3.14-2.28v-22.2h.46c2.86-.73,4.9-2.74,6.1-5.75.74-1.83,1.11-4.02,1.2-6.67v-1.28c.83-.18,1.76-.27,2.22-.18,1.48.37,2.03,2.56,2.22,3.47.65,3.11-.18,6.94-1.66,7.95-.46.27-.55.82-.46,1.28.18.46.55.82,1.11.82h16.45c1.66,0,2.22,1.19,2.22,2.19.09.64-.46,2.1-2.22,2.1Z"/>
    </g>
  </g>
</svg>