<?xml version="1.0" encoding="UTF-8"?>
<svg id="Layer_2" data-name="Layer 2" xmlns="http://www.w3.org/2000/svg" viewBox="0 0 67.32 73.05">
  <defs>
    <style>
      .cls-1 {
        fill: #fff;
      }
    </style>
  </defs>
  <g id="Layer_1-2" data-name="Layer 1">
    <g>
      <rect class="cls-1" x="24.85" y="70.69" width="21.39" height="2.35"/>
      <path class="cls-1" d="M50.88,73.05h-23.75V27.69h23.75v45.36ZM29.49,70.69h19.04V30.04h-19.04v40.65Z"/>
      <path class="cls-1" d="M29.49,73.05H5.74v-29.48h23.75v29.48ZM8.09,70.69h19.04v-24.77H8.09v24.77Z"/>
      <path class="cls-1" d="M61.58,73.05h-13.05v-17.61h13.05v17.61ZM50.88,70.69h8.34v-12.9h-8.34v12.9Z"/>
      <polygon class="cls-1" points="18.79 44.75 16.44 44.75 16.44 19.01 40.18 8.87 40.18 28.87 37.83 28.87 37.83 12.43 18.79 20.56 18.79 44.75"/>
      <path class="cls-1" d="M28.31,16.39c-.65,0-1.18-.53-1.18-1.18V1.18c0-.65.53-1.18,1.18-1.18s1.18.53,1.18,1.18v14.04c0,.65-.53,1.18-1.18,1.18Z"/>
      <rect class="cls-1" x="11.05" y="49.3" width="13.12" height="2.35"/>
      <rect class="cls-1" x="21.75" y="21.18" width="13.12" height="2.35"/>
      <rect class="cls-1" x="21.75" y="26.18" width="4.11" height="2.35"/>
      <rect class="cls-1" x="21.75" y="31.18" width="4.11" height="2.35"/>
      <rect class="cls-1" x="21.75" y="36.18" width="4.11" height="2.35"/>
      <rect class="cls-1" x="11.05" y="53.94" width="13.12" height="2.35"/>
      <rect class="cls-1" x="11.05" y="58.58" width="13.12" height="2.35"/>
      <rect class="cls-1" x="11.05" y="63.23" width="13.12" height="2.35"/>
      <rect class="cls-1" x="31.4" y="32.48" width="3.41" height="2.35"/>
      <rect class="cls-1" x="37.3" y="32.48" width="3.41" height="2.35"/>
      <rect class="cls-1" x="43.21" y="32.48" width="3.41" height="2.35"/>
      <rect class="cls-1" x="31.4" y="37.23" width="3.41" height="2.35"/>
      <rect class="cls-1" x="37.3" y="37.23" width="3.41" height="2.35"/>
      <rect class="cls-1" x="43.21" y="37.23" width="3.41" height="2.35"/>
      <rect class="cls-1" x="31.4" y="41.97" width="3.41" height="2.35"/>
      <rect class="cls-1" x="37.3" y="41.97" width="3.41" height="2.35"/>
      <rect class="cls-1" x="43.21" y="41.97" width="3.41" height="2.35"/>
      <rect class="cls-1" x="31.4" y="46.72" width="3.41" height="2.35"/>
      <rect class="cls-1" x="37.3" y="46.72" width="3.41" height="2.35"/>
      <rect class="cls-1" x="43.21" y="46.72" width="3.41" height="2.35"/>
      <rect class="cls-1" x="31.4" y="51.47" width="3.41" height="2.35"/>
      <rect class="cls-1" x="37.3" y="51.47" width="3.41" height="2.35"/>
      <rect class="cls-1" x="43.21" y="51.47" width="3.41" height="2.35"/>
      <rect class="cls-1" x="31.4" y="56.21" width="3.41" height="2.35"/>
      <rect class="cls-1" x="37.3" y="56.21" width="3.41" height="2.35"/>
      <rect class="cls-1" x="43.21" y="56.21" width="3.41" height="2.35"/>
      <rect class="cls-1" x="31.4" y="60.96" width="3.41" height="2.35"/>
      <rect class="cls-1" x="37.3" y="60.96" width="3.41" height="2.35"/>
      <rect class="cls-1" x="43.21" y="60.96" width="3.41" height="2.35"/>
      <rect class="cls-1" x="31.4" y="65.7" width="3.41" height="2.35"/>
      <rect class="cls-1" x="37.3" y="65.7" width="3.41" height="2.35"/>
      <rect class="cls-1" x="43.21" y="65.7" width="3.41" height="2.35"/>
      <path class="cls-1" d="M66.14,73.05H1.18c-.65,0-1.18-.53-1.18-1.18s.53-1.18,1.18-1.18h64.96c.65,0,1.18.53,1.18,1.18s-.53,1.18-1.18,1.18Z"/>
    </g>
  </g>
</svg>