<?xml version="1.0" encoding="UTF-8"?>
<svg id="Layer_2" data-name="Layer 2" xmlns="http://www.w3.org/2000/svg" viewBox="0 0 45 44.96">
  <defs>
    <style>
      .cls-1 {
        fill: #fff;
      }
    </style>
  </defs>
  <g id="Layer_1-2" data-name="Layer 1">
    <g id="_103_Delivery_Logistic_Order_Package_Shipping" data-name="103, Delivery, Logistic, Order, Package, Shipping">
      <g>
        <path class="cls-1" d="M44.33,11.34L22.84.11c-.3-.15-.6-.15-.82,0L.52,11.34c-.3.15-.52.45-.52.82v31.82c0,.52.45.97.97.97h43.05c.52,0,.97-.45.97-.97V12.17c-.15-.37-.3-.67-.67-.82ZM7.41,33.66h29.95v1.87H7.41v-1.87ZM7.41,29.91h29.95v1.87H7.41v-1.87ZM7.41,26.17h29.95v1.87H7.41v-1.87ZM37.36,24.3H7.41v-1.87h29.95v1.87h0ZM7.41,37.4h29.95v1.87H7.41v-1.87ZM37.36,20.55H7.41v-1.87h29.95v1.87h0ZM7.41,43.02v-1.87h29.95v1.87H7.41ZM42.98,43.02h-3.74v-25.23c0-.52-.45-.97-.97-.97H6.51c-.52,0-.97.45-.97.97v25.23H1.8V12.69L22.39,1.91l20.59,10.71v30.4Z"/>
        <path class="cls-1" d="M18.64,8.42c0,2.1,1.65,3.74,3.74,3.74s3.74-1.65,3.74-3.74-1.65-3.74-3.74-3.74-3.74,1.65-3.74,3.74ZM24.26,8.42c0,1.05-.82,1.87-1.87,1.87s-1.87-.82-1.87-1.87.82-1.87,1.87-1.87,1.87.82,1.87,1.87Z"/>
      </g>
    </g>
  </g>
</svg>